<svg width="20px" height="14px" viewBox="0 0 20 14" version="1.1" xmlns="http://www.w3.org/2000/svg" xmlns:xlink="http://www.w3.org/1999/xlink">
    <g id="Symbols" stroke="none" stroke-width="1" fill="none" fill-rule="evenodd">
        <g id="icons/kids" transform="translate(-2.000000, -5.000000)" fill="#000000">
            <g id="Bice" transform="translate(2.000000, 5.000000)">
                <path d="M15.5324382,4.52232243 C15.3418107,4.5243146 15.1515206,4.53884056 14.9627995,4.5658063 L14.867135,4.19184502 C14.884706,4.1057648 14.884706,4.01702202 14.867135,3.9309418 L14.4322963,2.19158702 C14.4113525,2.10977378 14.3744044,2.03292165 14.3235866,1.9654709 L13.9974576,0.660954816 C13.9253243,0.369179774 13.6631514,0.164469382 13.3625931,0.165238704 L10.7535609,0.165238704 C10.3933288,0.165238704 10.1013029,0.457264577 10.1013029,0.817496746 C10.1013029,1.17772892 10.3933288,1.46975479 10.7535609,1.46975479 L12.8538318,1.46975479 L12.9190576,1.73500639 C10.7866272,1.98974654 8.79872044,2.94394178 7.26615459,4.44839985 L7.26615459,2.55685153 C7.26615459,2.19661936 6.97412872,1.90459348 6.61389655,1.90459348 L4.22228373,1.90459348 C3.86205156,1.90459348 3.57002569,2.19661936 3.57002569,2.55685153 C3.57002569,2.9170837 3.86205156,3.20910957 4.22228373,3.20910957 L5.96163851,3.20910957 L5.96163851,4.71365145 C4.24477021,4.1741237 2.37294873,4.74794029 1.25342364,6.15697916 C0.133898554,7.56601803 -0.00197716814,9.51909737 0.91165382,11.0695829 C1.82528481,12.6200684 3.59961811,13.447548 5.37465553,13.1509521 C7.14969295,12.8543562 8.55861805,11.4949773 8.91854163,9.73168999 L9.87518676,9.73168999 C10.1059204,9.73119544 10.3192239,9.60883526 10.4361287,9.40990936 C10.4361287,9.40990936 10.8013932,8.78809002 11.2579738,8.0314707 C10.9055288,9.83296994 11.7223187,11.6617518 13.2991275,12.6015873 C14.8759364,13.5414229 16.8730881,13.3898528 18.2899997,12.2228145 C19.7069114,11.0557762 20.2383518,9.12467293 19.6180667,7.3969972 C18.9977817,5.66932147 17.3593929,4.51724907 15.5237414,4.51797404 L15.5324382,4.52232243 Z M6.89219331,6.80522558 C7.31071465,7.25746174 7.58212961,7.82606851 7.67055458,8.43587068 L5.74856755,8.43587068 C6.0933409,7.86765917 6.47538637,7.32291752 6.89219331,6.80522558 L6.89219331,6.80522558 Z M4.66147081,11.9145802 C3.43172362,11.9159075 2.32198175,11.1771329 1.84873447,10.0420924 C1.37548718,8.90705189 1.63171317,7.59874644 2.49816132,6.72607952 C3.36460946,5.85341261 4.67104904,5.58783675 5.80944496,6.05295463 C5.12956285,6.9079312 4.54623814,7.83541748 4.07009018,8.81852873 C3.97831835,9.02070128 3.99569098,9.25567205 4.11619777,9.44214972 C4.23670457,9.62862738 4.44379345,9.74099851 4.6658192,9.74038677 L7.58358684,9.74038677 C7.1984408,11.0322128 6.00948672,11.9168513 4.66147081,11.9145802 L4.66147081,11.9145802 Z M9.50557387,8.43587068 L8.98811582,8.43587068 C8.88673969,7.45150362 8.45264253,6.53115629 7.75752232,5.82683851 C9.0620384,4.47014178 10.9057545,3.21780634 13.2364899,3.02647732 L13.3930318,3.65699342 C12.6236271,3.96694105 11.9668705,4.50387368 11.5101803,5.1963224 C10.8274835,6.21384495 9.90127708,7.76621909 9.50557387,8.43587068 Z M15.5324382,11.9145802 C14.1511524,11.9123414 12.9445361,10.9802887 12.5934598,9.64436176 C12.2423835,8.30843483 12.8348711,6.90358473 14.0365931,6.22254172 L14.9062705,9.70125128 C14.9780132,9.9914534 15.2378505,10.1957393 15.5367866,10.1969674 C15.5902166,10.2035191 15.6442469,10.2035191 15.6976769,10.1969674 C15.865482,10.1548819 16.0096936,10.0478552 16.0985825,9.89943516 C16.1874714,9.75101514 16.2137552,9.57336139 16.1716511,9.40556097 L15.3019737,5.87901916 L15.5498317,5.87901916 C17.2309152,5.87901916 18.5937026,7.24180656 18.5937026,8.92289002 C18.5937026,10.6039735 17.2309152,11.9667609 15.5498317,11.9667609 L15.5324382,11.9145802 Z" id="Shape"></path>
            </g>
        </g>
    </g>
</svg>