<svg width="12px" height="14px" viewBox="0 0 12 14" version="1.1" xmlns="http://www.w3.org/2000/svg" xmlns:xlink="http://www.w3.org/1999/xlink">
    <g id="Symbols" stroke="none" stroke-width="1" fill="none" fill-rule="evenodd">
        <g id="UI/-Icons/-Digi-Close-White-" transform="translate(-6.000000, -5.000000)" fill="#000">
            <g id="Page-1" transform="translate(5.000000, 5.000000)">
                <path d="M13.893,6 L0.118,6 C-0.498,6 -1,6.501 -1,7.183 C-1,7.799 -0.498,8.301 0.118,8.301 L13.893,8.301 C14.509,8.301 15.01,7.799 15.01,7.117 C15.01,6.501 14.509,6 13.893,6" id="Fill-4" transform="translate(7.005000, 7.150500) rotate(-45.000000) translate(-7.005000, -7.150500) "></path>
                <path d="M13.893,6 L0.118,6 C-0.498,6 -1,6.501 -1,7.183 C-1,7.799 -0.498,8.301 0.118,8.301 L13.893,8.301 C14.509,8.301 15.01,7.799 15.01,7.117 C15.01,6.501 14.509,6 13.893,6" id="Fill-4" transform="translate(7.005000, 7.150500) rotate(-312.000000) translate(-7.005000, -7.150500) "></path>
            </g>
        </g>
    </g>
</svg>