<svg width="24px" height="24px" viewBox="0 0 24 24" version="1.1" xmlns="http://www.w3.org/2000/svg" xmlns:xlink="http://www.w3.org/1999/xlink">
    <g id="Symbols" stroke="none" stroke-width="1" fill="none" fill-rule="evenodd">
        <g id="UI/-Tick-deselect-Copy">
            <g id="Page-1-Copy">
                <path d="M12,24 C5.38354286,24 0,18.6164571 0,12 C0,5.38354286 5.38354286,0 12,0 C18.6164571,0 24,5.38354286 24,12 C24,18.6164571 18.6164571,24 12,24" id="Fill-3" fill="#9cd87f"></path>
                <path d="M9.88153359,16 C9.8579746,16 9.83381153,15.9994021 9.81025254,15.9970103 C9.54747917,15.9766802 9.30766071,15.8445343 9.15180891,15.6346557 L7.03331186,12.7830567 C6.73671019,12.3842275 6.82369723,11.8227573 7.22601233,11.5291664 C7.6289315,11.2361734 8.19615954,11.3210815 8.49276121,11.7205087 L9.99087148,13.7361808 L15.6003279,8.25840803 C15.9567332,7.91040413 16.5312101,7.91458974 16.8815746,8.26677926 C17.2331473,8.61956672 17.2295228,9.18701638 16.8731176,9.53502028 L10.5182305,15.7416878 C10.3472767,15.9079165 10.1189357,16 9.88153359,16" id="Fill-1" fill="#FFFFFF"></path>
            </g>
        </g>
    </g>
</svg>