<svg width="22px" height="24px" viewBox="0 0 22 24" version="1.1" xmlns="http://www.w3.org/2000/svg" xmlns:xlink="http://www.w3.org/1999/xlink">
    <g id="web_logged.in" stroke="none" stroke-width="1" fill="none" fill-rule="evenodd">
        <g id="web_my_subscription_previous.month" transform="translate(-1290.000000, -43.000000)">
            <g id="Group-9">
                <g id="Group-3">
                    <g id="Group-8" transform="translate(1289.000000, 43.000000)">
                        <rect id="Rectangle" x="0" y="0" width="24" height="24"></rect>
                        <g id="UI/-Icons/-Digi-Search-white" transform="translate(1.000000, 0.000000)">
                            <path d="M10.7363795,11.5324814 C9.85087953,11.5324814 9.03071286,11.2688147 8.32954619,10.8336481 C7.02054619,10.0228147 6.14087953,8.58431472 6.14087953,6.93581472 C6.14087953,4.40064805 8.20121286,2.33914805 10.7363795,2.33914805 C13.2727129,2.33914805 15.3330462,4.40064805 15.3330462,6.93581472 C15.3330462,8.58431472 14.4533795,10.0228147 13.1443795,10.8336481 C12.4432129,11.2688147 11.6230462,11.5324814 10.7363795,11.5324814 Z M4.20771286,21.5949814 L2.51721286,21.5949814 C2.76104619,17.2293147 6.34737953,13.8284814 10.7363795,13.8284814 C15.1265462,13.8284814 18.7140462,17.2293147 18.9567129,21.5949814 L17.1437129,21.5949814 L4.20771286,21.5949814 Z M14.8337129,23.5993147 L19.4350462,23.5993147 C20.1723795,23.5993147 20.7755462,23.0649814 20.9167129,22.3684814 L20.9167129,21.3114814 C20.6250462,17.3459814 18.0782129,13.8751481 14.3308795,12.4739814 C15.0098795,12.0329814 15.5908795,11.4729814 16.0587129,10.8336481 C17.4972129,8.86314805 17.8413795,6.12381472 16.4798795,3.68548139 C15.5558795,2.02998139 13.9178795,0.824814719 12.0570462,0.461981385 C7.84071286,-0.359351948 4.13537953,2.86414805 4.13537953,6.93581472 C4.13537953,8.35331472 4.60204619,9.71598139 5.41871286,10.8336481 C5.88654619,11.4729814 6.46521286,12.0329814 7.14304619,12.4728147 C3.14954619,13.9661481 0.487212858,17.8033147 0.500046192,22.0908147 L0.500046192,22.0954814 C0.503546192,22.9284814 1.20471286,23.5993147 2.03887953,23.5993147 L6.64021286,23.5993147 L14.8337129,23.5993147 Z" id="Fill-1" stroke="#272727" stroke-width="0.4" fill="#272727"></path>
                            <path d="M4.20771286,21.5949814 L2.51721286,21.5949814 C2.76104619,17.2293147 6.34737953,13.8284814 10.7363795,13.8284814 C15.1265462,13.8284814 18.7140462,17.2293147 18.9567129,21.5949814 L17.1437129,21.5949814 L4.20771286,21.5949814 Z" id="Path-Copy" fill="#FFE600"></path>
                        </g>
                    </g>
                </g>
            </g>
        </g>
    </g>
</svg>