<svg width="9px" height="17px" viewBox="0 0 9 17" version="1.1" xmlns="http://www.w3.org/2000/svg" xmlns:xlink="http://www.w3.org/1999/xlink">
    <g id="Symbols" stroke="none" stroke-width="1" fill="none" fill-rule="evenodd">
        <g id="Desktop-Footer" transform="translate(-1034.000000, -69.000000)" fill="#010202">
            <g id="Group-2">
                <g id="Group-13" transform="translate(1034.000000, 69.000000)">
                    <g id="Page-1">
                        <path d="M7.1770073,2.86936099 C7.71076642,2.8499263 8.24452555,2.86450232 8.77992701,2.86450232 L9,2.86450232 L9,0.124211061 C8.71587591,0.096678584 8.4169708,0.056189647 8.11806569,0.0416136297 C7.57116788,0.0173202675 7.02262774,-0.00859265218 6.47408759,0.00274425017 C5.63649635,0.0205593825 4.84489051,0.22138451 4.15182482,0.710490869 C3.35857664,1.27409687 2.92335766,2.06444092 2.75748175,2.99730603 C2.68850365,3.38114115 2.67043796,3.78117185 2.66058394,4.17310476 C2.64580292,4.7885366 2.65894161,5.40072933 2.65894161,6.01616117 L2.65894161,6.24775789 L0,6.24775789 L0,9.30872153 L2.64251825,9.30872153 L2.64251825,17 L5.8729927,17 L5.8729927,9.32005843 L8.50729927,9.32005843 C8.6419708,8.30135678 8.77335766,7.29399202 8.91131387,6.24613833 C8.69945255,6.24613833 8.51058394,6.24451878 8.32007299,6.24613833 C7.57116788,6.24937745 5.85164234,6.24613833 5.85164234,6.24613833 C5.85164234,6.24613833 5.85821168,4.72861298 5.87627737,4.07107264 C5.90255474,3.17059868 6.44452555,2.89527391 7.1770073,2.86936099" id="Fill-3"></path>
                    </g>
                </g>
            </g>
        </g>
    </g>
</svg>