<svg width="16px" height="16px" viewBox="0 0 16 16" version="1.1" xmlns="http://www.w3.org/2000/svg" xmlns:xlink="http://www.w3.org/1999/xlink">
    <g id="Symbols" stroke="none" stroke-width="1" fill="none" fill-rule="evenodd">
        <g id="Desktop-Footer" transform="translate(-1115.000000, -70.000000)" fill="#010202">
            <g id="Group-2">
                <g id="Group-13" transform="translate(1034.000000, 69.000000)">
                    <g id="Page-1" transform="translate(81.000000, 1.000000)">
                        <path d="M13.8376667,13.0863333 C13.8376667,13.4996667 13.4993333,13.8363333 13.0876667,13.8363333 L2.87433333,13.8363333 C2.46266667,13.8363333 2.126,13.4996667 2.126,13.0863333 L2.126,6.908 L3.59433333,6.908 C3.50933333,7.25133333 3.466,7.61133333 3.466,7.98133333 C3.466,10.4763333 5.486,12.4963333 7.981,12.4963333 C10.476,12.4963333 12.4976667,10.4763333 12.4976667,7.98133333 C12.4976667,7.61133333 12.4526667,7.25133333 12.3693333,6.908 L13.8376667,6.908 L13.8376667,13.0863333 Z M5.24266667,6.908 C5.671,5.81466667 6.736,5.038 7.981,5.038 C9.226,5.038 10.291,5.81466667 10.7193333,6.908 C10.851,7.23966667 10.9226667,7.60133333 10.9226667,7.98133333 C10.9226667,9.603 9.60433333,10.923 7.981,10.923 C6.35933333,10.923 5.03933333,9.603 5.03933333,7.98133333 C5.03933333,7.60133333 5.111,7.23966667 5.24266667,6.908 Z M11.1626667,2.59966667 C11.1626667,2.36966667 11.3476667,2.18633333 11.5776667,2.18633333 L13.371,2.18633333 C13.5993333,2.18633333 13.786,2.36966667 13.786,2.59966667 L13.786,4.39466667 C13.786,4.623 13.5993333,4.808 13.371,4.808 L11.5776667,4.808 C11.3476667,4.808 11.1626667,4.623 11.1626667,4.39466667 L11.1626667,2.59966667 Z M13.0876667,0.551333333 L2.87433333,0.551333333 C1.59266667,0.551333333 0.552666667,1.593 0.552666667,2.87466667 L0.552666667,13.0863333 C0.552666667,14.3696667 1.59266667,15.4096667 2.87433333,15.4096667 L13.0876667,15.4096667 C14.3693333,15.4096667 15.411,14.3696667 15.411,13.0863333 L15.411,2.87466667 C15.411,1.593 14.3693333,0.551333333 13.0876667,0.551333333 Z" id="Fill-3"></path>
                    </g>
                </g>
            </g>
        </g>
    </g>
</svg>