<svg width="19px" height="17px" viewBox="0 0 19 17" version="1.1" xmlns="http://www.w3.org/2000/svg" xmlns:xlink="http://www.w3.org/1999/xlink">
    <g id="Symbols" stroke="none" stroke-width="1" fill="none" fill-rule="evenodd">
        <g id="UI/-Icons/-Digi-Search-black" transform="translate(-3.000000, -4.000000)" fill="#272727">
            <path d="M11.0640507,6.099 C9.27105074,6.099 7.59105074,6.89 6.45605074,8.268 C4.36605074,10.807 4.73105074,14.572 7.26805074,16.662 C8.34905074,17.552 9.65605074,18.023 11.0500507,18.023 C11.2430507,18.023 11.4380507,18.014 11.6330507,17.995 C13.2180507,17.842 14.6490507,17.08 15.6620507,15.85 C17.7510507,13.311 17.3870507,9.546 14.8500507,7.457 C13.7870507,6.581 12.4420507,6.099 11.0640507,6.099 M20.3360507,20.75 C20.0940507,20.75 19.8570507,20.665 19.6700507,20.511 L16.5570507,17.948 L16.4290507,18.063 C15.1420507,19.22 13.5530507,19.919 11.8350507,20.085 C11.5700507,20.111 11.3070507,20.123 11.0440507,20.123 C9.16205074,20.123 7.39405074,19.487 5.93205074,18.283 C2.50205074,15.457 2.01005074,10.366 4.83405074,6.933 C6.37105074,5.069 8.64205074,4 11.0660507,4 C12.9300507,4 14.7480507,4.652 16.1850507,5.836 C19.2270507,8.341 19.9980507,12.787 17.9790507,16.179 L17.8910507,16.327 L21.0040507,18.89 C21.2210507,19.068 21.3550507,19.32 21.3820507,19.599 C21.4090507,19.878 21.3260507,20.151 21.1470507,20.368 C20.9470507,20.611 20.6520507,20.75 20.3360507,20.75" id="Fill-1"></path>
        </g>
    </g>
</svg>