<svg width="16px" height="17px" viewBox="0 0 16 17" version="1.1" xmlns="http://www.w3.org/2000/svg" xmlns:xlink="http://www.w3.org/1999/xlink">
    <g id="Symbols" stroke="none" stroke-width="1" fill="none" fill-rule="evenodd">
        <g id="icons/education" transform="translate(-4.000000, -3.000000)" fill="#000000">
            <g id="Brain" transform="translate(4.000000, 3.000000)">
                <path d="M15.6651493,6.27557472 C15.6703526,4.68891518 14.6707429,3.27280146 13.1739494,2.74637488 L13.1739494,2.55607489 C13.1695085,1.8992155 12.9012655,1.27170033 12.4295227,0.814597818 C11.9577799,0.357495309 11.3221226,0.109162206 10.6654495,0.125424994 C8.66729962,0.125424994 8.11369964,0.765524966 7.78067466,1.38399994 C7.71147466,1.32777494 7.62497466,1.24559995 7.56009967,1.18072495 C6.92947216,0.481545809 6.02296389,0.095528325 5.08187478,0.125424994 C4.41983794,0.113807319 3.78095819,0.368996039 3.30910879,0.833523639 C2.83725939,1.29805124 2.57211131,1.93286232 2.57337489,2.59499989 L2.57337489,2.76799988 C1.46910659,3.16004088 0.612683688,4.04737158 0.260022669,5.16483963 C-0.0926383492,6.28230768 0.0993064074,7.50049205 0.778499966,8.45537463 C0.0976541315,9.41189833 -0.0952642612,10.6323324 0.257355814,11.7522197 C0.60997589,12.8721071 1.46732539,13.7618422 2.57337489,14.1557244 L2.57337489,14.3460244 C2.55136446,15.7611615 3.66734725,16.9329435 5.08187478,16.9799493 C5.6338737,16.934502 6.15539232,16.7079531 6.56534971,16.3355243 C6.63887471,16.2836243 6.7296997,16.2144243 6.7859247,16.1754993 L8.94842461,16.1754993 C9.0089746,16.2144243 9.0997996,16.2836243 9.1689996,16.3355243 C9.57913485,16.7076777 10.1005555,16.934184 10.6524745,16.9799493 C12.0434174,16.9336009 13.1501488,15.7982471 13.1609744,14.4065744 L13.1609744,14.1816744 C14.6498983,13.634947 15.6429157,12.2212765 15.6521743,10.6351745 C15.6513849,9.86001495 15.4095517,9.10428607 14.9601743,8.47267463 C15.4207903,7.83287983 15.6675213,7.06392669 15.6651493,6.27557472 L15.6651493,6.27557472 Z M6.6994247,14.8779993 C6.35697517,14.9170573 6.03734782,15.0692608 5.79117474,15.3104993 C5.59286564,15.4945189 5.35219625,15.6267385 5.09052478,15.6954243 C4.40082686,15.6324828 3.8744102,15.0515444 3.87952483,14.3589994 C3.88016372,14.2110134 3.90801888,14.0644073 3.96169983,13.9264994 L3.96169983,13.8918994 C3.97090999,13.8636038 3.97813585,13.8347003 3.98332482,13.8053994 L3.98332482,13.7448494 L3.98332482,13.6929494 C3.98332482,13.6756494 3.98332482,13.6453744 4.00927482,13.6237494 C4.23849981,13.4247994 5.01699978,13.3685744 5.60519975,13.4464244 C5.96349447,13.4930027 6.29170891,13.2403066 6.33828722,12.8820119 C6.38486553,12.5237172 6.13216946,12.1955028 5.77387475,12.1489245 C5.47544976,12.1099995 3.94007483,11.9456495 3.15292486,12.6376494 C3.067603,12.7146021 2.99206934,12.8017563 2.92802487,12.8971494 C2.18478275,12.6059249 1.63191082,11.9683243 1.44888518,11.1913286 C1.26585955,10.414333 1.47601318,9.59699747 2.01112491,9.0046496 C2.3744249,8.86192461 3.55082484,8.48132463 4.29904981,9.23387459 C4.55466574,9.47206 4.95299819,9.46503189 5.20005263,9.21797745 C5.44710706,8.97092301 5.45413517,8.57259056 5.21594977,8.31697463 C4.08279982,7.18382468 2.58202489,7.45197467 1.81649992,7.69849966 C1.35913149,7.05500906 1.24475292,6.22874369 1.51011734,5.48520636 C1.77548177,4.74166904 2.38715911,4.17452906 3.14859986,3.96602483 C3.74112484,4.74884979 5.06889978,5.06457478 5.34569976,5.12079977 C5.69682859,5.19484735 6.04150216,4.97022862 6.11554973,4.6190998 C6.1895973,4.26797097 5.96497857,3.9232974 5.61384975,3.84924983 C5.12512477,3.74544983 4.31634981,3.43837485 4.16497482,3.15292486 L4.16497482,3.07939986 C4.26349867,2.79418221 4.15236014,2.47869217 3.89682483,2.3181999 C4.04459508,1.79635496 4.52668333,1.44057028 5.06889978,1.45319994 C5.67216096,1.42454682 6.25428375,1.67882573 6.64319971,2.14087491 C6.81169825,2.31603401 7.00213493,2.4686741 7.20977468,2.59499989 L7.20977468,14.8779993 L6.6994247,14.8779993 Z M12.8279494,12.9187744 C12.7611435,12.8164724 12.6811652,12.7234067 12.5900744,12.6419744 C11.8029245,11.9499745 10.2675495,12.1143245 9.96912456,12.1532495 C9.73734848,12.1833803 9.53925316,12.3348734 9.44945923,12.5506628 C9.35966529,12.7664522 9.39181457,13.0137544 9.53379673,13.1994129 C9.6757789,13.3850714 9.90602348,13.4808803 10.1377996,13.4507494 C10.6351745,13.3858744 11.4871995,13.4118244 11.7337245,13.6280744 C11.7337245,13.6280744 11.7596745,13.6540244 11.7596745,13.6972744 L11.7596745,13.7361994 C11.7591645,13.812885 11.7723462,13.8890459 11.7985995,13.9610994 C11.8520937,14.1095662 11.8798836,14.2660668 11.8807745,14.4238744 C11.8883642,15.106597 11.3519643,15.6717327 10.6697745,15.6997493 C10.4066301,15.6315541 10.1644439,15.4993175 9.96479956,15.3148243 C9.71881916,15.0733102 9.39909167,14.921059 9.0565496,14.8823243 L8.52889962,14.8823243 L8.52889962,2.52147489 C8.68922801,2.3859103 8.81895365,2.21785663 8.90949961,2.02842491 C9.0522246,1.75594992 9.23387459,1.41859994 10.6697745,1.41859994 C11.2328687,1.39196815 11.7340413,1.7728593 11.8591495,2.3225249 C11.605974,2.48078804 11.4935068,2.7914116 11.5866745,3.07507486 L11.5866745,3.14859986 C11.4352995,3.40809985 10.7216745,3.70652484 10.1248246,3.81897483 C9.76652984,3.85241567 9.50318374,4.16998008 9.53662458,4.5282748 C9.57006542,4.88656952 9.88762983,5.14991561 10.2459245,5.11647477 L10.3670245,5.11647477 C10.6481495,5.06457478 12.0234995,4.76614979 12.6160244,3.96169983 C13.3693927,4.18561211 13.9687222,4.75880045 14.225988,5.50144083 C14.4832537,6.24408122 14.3669351,7.06518462 13.9135244,7.70714966 C13.1479994,7.46062467 11.6472245,7.19247468 10.5140745,8.32562463 C10.3405095,8.48735418 10.269064,8.73092516 10.3277661,8.96078451 C10.3864681,9.19064386 10.5659553,9.37013103 10.7958146,9.42883308 C11.025674,9.48753512 11.269245,9.41608958 11.4309745,9.24252459 C12.1791995,8.49429963 13.3469494,8.86624961 13.7145744,9.0132996 C14.1261064,9.46344514 14.3544265,10.0512151 14.3546744,10.6611245 C14.3412742,11.6507187 13.7413766,12.5378192 12.8279494,12.9187744 L12.8279494,12.9187744 Z" id="Shape"></path>
            </g>
        </g>
    </g>
</svg>