<svg width="18px" height="20px" viewBox="0 0 18 20" version="1.1" xmlns="http://www.w3.org/2000/svg" xmlns:xlink="http://www.w3.org/1999/xlink">
    <g id="Symbols" stroke="none" stroke-width="1" fill="none" fill-rule="evenodd">
        <g id="UI/-Icons/-Digi-login_colored" transform="translate(-3.000000, -2.000000)" fill="#2A2A2A" stroke="#2A2A2A" stroke-width="0.5">
            <path d="M12.0219609,11.7764554 C11.3280196,11.7764554 10.6852782,11.5698272 10.1357937,11.2287994 C9.1099675,10.5933723 8.42059763,9.46606058 8.42059763,8.17417779 C8.42059763,6.18743943 10.0352225,4.57190022 12.0219609,4.57190022 C14.0096136,4.57190022 15.6242385,6.18743943 15.6242385,8.17417779 C15.6242385,9.46606058 14.9348686,10.5933723 13.9090424,11.2287994 C13.3595579,11.5698272 12.7168165,11.7764554 12.0219609,11.7764554 Z M6.90562963,19.6621518 L5.58083262,19.6621518 C5.7719179,16.2409024 8.58242583,13.5757656 12.0219609,13.5757656 C15.4624103,13.5757656 18.2738325,16.2409024 18.4640035,19.6621518 L17.0432067,19.6621518 L6.90562963,19.6621518 Z M15.2329251,21.2328911 L18.8388598,21.2328911 C19.416687,21.2328911 19.8893717,20.8141492 20,20.2683219 L20,19.4399809 C19.7714291,16.3323308 17.7755479,13.6123369 14.8388688,12.5142823 C15.3709819,12.168683 15.8262952,11.7298269 16.1929229,11.2287994 C17.3202346,9.68457437 17.5899483,7.53783637 16.5229793,5.62698355 C15.7988666,4.32961506 14.5152124,3.38516005 13.05693,3.10081784 C9.7527089,2.45716215 6.84894404,4.98332786 6.84894404,8.17417779 C6.84894404,9.28503242 7.2146575,10.3529157 7.85465605,11.2287994 C8.22128379,11.7298269 8.67476848,12.168683 9.20596728,12.513368 C6.07637436,13.683651 3.98997908,16.6907299 4.0000362,20.0507223 L4.0000362,20.0543795 C4.00277905,20.707178 4.55226352,21.2328911 5.20597633,21.2328911 L8.81191103,21.2328911 L15.2329251,21.2328911 Z" id="Fill-1"></path>
        </g>
    </g>
</svg>