<svg width="20px" height="16px" viewBox="0 0 20 16" version="1.1" xmlns="http://www.w3.org/2000/svg" xmlns:xlink="http://www.w3.org/1999/xlink">
    <g id="Symbols" stroke="none" stroke-width="1" fill="none" fill-rule="evenodd">
        <g id="Desktop-Footer" transform="translate(-1295.000000, -70.000000)" fill="#010202">
            <g id="Group-2">
                <g id="Group-13" transform="translate(1034.000000, 69.000000)">
                    <g id="Page-1" transform="translate(261.000000, 1.000000)">
                        <path d="M6.02166667,12.3146667 C4.00833333,12.2446667 2.75166667,10.7996667 2.41833333,9.62633333 C2.97833333,9.733 3.53,9.71133333 4.07833333,9.57633333 C4.09333333,9.573 4.10666667,9.56466667 4.135,9.55133333 C3.04333333,9.29633333 2.20166667,8.71466667 1.61833333,7.773 C1.23,7.148 1.045,6.46466667 1.05166667,5.71466667 C1.595,6.00466667 2.165,6.168 2.775,6.183 C1.955,5.593 1.405,4.82133333 1.18,3.833 C0.956666667,2.848 1.10166667,1.913 1.59666667,1.02966667 C3.69333333,3.498 6.34666667,4.853 9.585,5.07633333 C9.56333333,4.92133333 9.53833333,4.788 9.52333333,4.65133333 C9.415,3.73966667 9.59666667,2.89133333 10.0883333,2.11966667 C10.705,1.153 11.585,0.551333333 12.715,0.368 C14.0183333,0.154666667 15.155,0.526333333 16.1066667,1.448 C16.17,1.51133333 16.2233333,1.52966667 16.3116667,1.51133333 C17.1083333,1.33633333 17.86,1.04966667 18.565,0.643 C18.5816667,0.633 18.5983333,0.624666667 18.6166667,0.616333333 C18.62,0.614666667 18.6266667,0.614666667 18.6416667,0.614666667 C18.3366667,1.51633333 17.7783333,2.21133333 16.9833333,2.723 C17.7333333,2.63966667 18.45,2.44133333 19.1416667,2.14133333 C19.1466667,2.148 19.1516667,2.15466667 19.1566667,2.15966667 C19.0083333,2.353 18.865,2.553 18.7116667,2.74133333 C18.3,3.248 17.8283333,3.693 17.3033333,4.07966667 C17.2583333,4.11133333 17.2366667,4.143 17.2383333,4.20133333 C17.26,4.77633333 17.2383333,5.34966667 17.1666667,5.91966667 C17.0183333,7.12466667 16.6816667,8.27133333 16.1683333,9.368 C15.6383333,10.5013333 14.9466667,11.523 14.075,12.4213333 C12.6,13.9463333 10.8216667,14.9313333 8.75166667,15.3896667 C8.04166667,15.5446667 7.32166667,15.623 6.595,15.6446667 C4.36166667,15.7096667 2.29666667,15.1546667 0.396666667,13.9813333 C0.371666667,13.9663333 0.348333333,13.9496667 0.305,13.923 C1.65666667,14.068 2.94333333,13.8946667 4.18,13.3896667 C4.83666667,13.118 5.445,12.7663333 6.02166667,12.3146667" id="Fill-3"></path>
                    </g>
                </g>
            </g>
        </g>
    </g>
</svg>