<svg width="12px" height="11px" viewBox="0 0 12 11" version="1.1" xmlns="http://www.w3.org/2000/svg" xmlns:xlink="http://www.w3.org/1999/xlink">
    <g id="web_home" stroke="none" stroke-width="1" fill="none" fill-rule="evenodd">
        <g id="my_subscription" transform="translate(-441.000000, -5758.000000)" fill="#FFF">
            <g id="Group-21" transform="translate(0.000000, 5601.000000)">
                <g id="Page-1-Copy" transform="translate(441.000000, 157.000000)">
                    <path d="M3.51576349,10.2666665 C3.48837687,10.2666665 3.46028803,10.2659689 3.43290141,10.2631785 C3.12743524,10.23946 2.84865348,10.0852899 2.66748044,9.84043148 L0.204791159,6.51356605 C-0.139999385,6.04826531 -0.0388795515,5.39321673 0.42879968,5.050694 C0.897181132,4.70886886 1.55656672,4.80792839 1.90135726,5.27392674 L3.64286551,7.62554414 L10.1636903,1.23480935 C10.5780008,0.8288048 11.245813,0.833688016 11.6531012,1.24457578 C12.0617939,1.65616114 12.0575806,2.31818574 11.6432701,2.72419028 L4.2559045,9.96530229 C4.05717594,10.1592357 3.79173637,10.2666665 3.51576349,10.2666665" id="Fill-1"></path>
                </g>
            </g>
        </g>
    </g>
</svg>