<svg width="61px" height="61px" viewBox="0 0 61 61" version="1.1" xmlns="http://www.w3.org/2000/svg" xmlns:xlink="http://www.w3.org/1999/xlink">
    <g id="web_logged.in" stroke="none" stroke-width="1" fill="none" fill-rule="evenodd">
        <g id="web_my_subscription_manage_unsubscribe_complete" transform="translate(-690.000000, -183.000000)" fill="#86C569">
            <g id="Group" transform="translate(257.000000, 183.000000)">
                <g id="Page-1-Copy" transform="translate(433.000000, 0.000000)">
                    <path d="M25.1155646,40.6666667 C25.0556854,40.6666667 24.994271,40.6651469 24.9343919,40.6590678 C24.2665095,40.6073954 23.656971,40.2715248 23.2608477,39.7380832 L17.8763343,32.4902691 C17.1224717,31.4765782 17.3435638,30.0495081 18.3661147,29.3032978 C19.3902009,28.5586073 20.8319055,28.7744156 21.5857681,29.7896263 L25.393465,34.9127929 L39.6508334,20.9901204 C40.5566968,20.1056105 42.0168258,20.1162489 42.9073355,21.0113973 C43.800916,21.9080654 43.7917038,23.3503333 42.8858405,24.2348432 L26.7338357,40.0101232 C26.2993284,40.4326211 25.7189617,40.6666667 25.1155646,40.6666667" id="Fill-1"></path>
                    <path d="M30.5,5.22857143 C16.5658571,5.22857143 5.22857143,16.5658571 5.22857143,30.5 C5.22857143,44.4341429 16.5658571,55.7714286 30.5,55.7714286 C44.4341429,55.7714286 55.7714286,44.4341429 55.7714286,30.5 C55.7714286,16.5658571 44.4341429,5.22857143 30.5,5.22857143 M30.5,61 C13.6831714,61 0,47.3168286 0,30.5 C0,13.6831714 13.6831714,0 30.5,0 C47.3168286,0 61,13.6831714 61,30.5 C61,47.3168286 47.3168286,61 30.5,61" id="Fill-3"></path>
                </g>
            </g>
        </g>
    </g>
</svg>