<svg width="45px" height="45px" viewBox="0 0 45 45" version="1.1" xmlns="http://www.w3.org/2000/svg" xmlns:xlink="http://www.w3.org/1999/xlink">
    <g id="web_pdp" stroke="none" stroke-width="1" fill="none" fill-rule="evenodd">
        <g id="web_pdp_video" transform="translate(-427.000000, -1011.000000)" fill="#000000">
            <g id="Group-3" transform="translate(0.000000, 860.000000)">
                <g id="Group-18" transform="translate(427.000000, 151.000000)">
                    <g id="Like">
                        <path d="M22.72,0.4 C10.5697355,0.4 0.72,10.2497355 0.72,22.4 C0.72,34.5502645 10.5697355,44.4 22.72,44.4 C34.8702645,44.4 44.72,34.5502645 44.72,22.4 C44.72,10.2497355 34.8702645,0.4 22.72,0.4 L22.72,0.4 Z M22.72,41.4 C12.2265898,41.4 3.72,32.8934102 3.72,22.4 C3.72,11.9065898 12.2265898,3.4 22.72,3.4 C33.2134102,3.4 41.72,11.9065898 41.72,22.4 C41.72,27.4391133 39.71822,32.2718377 36.1550288,35.8350288 C32.5918377,39.39822 27.7591133,41.4 22.72,41.4 Z" id="Shape"></path>
                        <path d="M26.42,15.65 C25.06543,15.8083793 23.7829995,16.3456137 22.72,17.2 C21.6539201,16.3443591 20.3679293,15.8070853 19.01,15.65 C17.0643107,15.6138061 15.2408047,16.5956939 14.2,18.24 C13.2295472,19.7951579 13.1423251,21.7443811 13.97,23.38 C14.76,24.94 19.68,29.09 21.77,30.81 C22.3243987,31.2677217 23.1256013,31.2677217 23.68,30.81 C25.76,29.1 30.68,24.94 31.47,23.37 C32.2914496,21.7274063 32.1966874,19.7753054 31.22,18.22 C30.1874234,16.5743889 28.362021,15.597038 26.42,15.65 L26.42,15.65 Z M28.78,22.03 C28.38,22.74 25.49,25.37 22.72,27.7 C20.5418767,25.9828271 18.5114427,24.0861944 16.65,22.03 C16.298866,21.3245351 16.3405478,20.48711 16.76,19.82 C17.2524012,19.0566572 18.1124416,18.6114151 19.02,18.65 C20.0152285,18.9593253 20.9278734,19.4891379 21.69,20.2 C22.2707542,20.758766 23.1892458,20.758766 23.77,20.2 C24.5292351,19.4904266 25.4383325,18.9606894 26.43,18.65 C27.3348039,18.6003159 28.1956576,19.0441338 28.68,19.81 C29.0993145,20.4808069 29.140947,21.321027 28.79,22.03 L28.78,22.03 Z" id="Shape"></path>
                    </g>
                </g>
            </g>
        </g>
    </g>
</svg>