<svg width="23px" height="15px" viewBox="0 0 23 15" version="1.1" xmlns="http://www.w3.org/2000/svg" xmlns:xlink="http://www.w3.org/1999/xlink">
    <g id="Symbols" stroke="none" stroke-width="1" fill="none" fill-rule="evenodd">
        <g id="Desktop-Footer" transform="translate(-1201.000000, -71.000000)" fill="#010202">
            <g id="Group-2">
                <g id="Group-13" transform="translate(1034.000000, 69.000000)">
                    <g id="Page-1" transform="translate(167.000000, 2.000000)">
                        <path d="M7.20483333,5.77916667 C7.20316667,5.81916667 7.19816667,5.85583333 7.19816667,5.8875 C7.19816667,6.72916667 7.2015,8.54916667 7.2015,8.54916667 L10.8898333,8.54916667 C10.8898333,8.8225 10.5665,9.9225 9.53483333,10.6225 C8.9315,11.0308333 8.2515,11.2208333 7.53316667,11.2658333 C7.02483333,11.2991667 6.52483333,11.2475 6.0365,11.0925 C4.49816667,10.5991667 3.3515,9.20583333 3.19483333,7.50916667 C3.1565,7.09083333 3.18483333,6.6725 3.27983333,6.25916667 C3.7365,4.25416667 5.6365,2.76583333 7.81316667,3.0875 C8.7765,3.23083333 9.3315,3.63083333 9.83816667,4.06416667 C10.5031667,3.39583333 11.1648333,2.7375 11.8431667,2.0575 C11.6781667,1.9375 11.2981667,1.55083333 10.6215,1.16083333 C9.60983333,0.575833333 8.51983333,0.2825 7.3515,0.269166667 C7.13316667,0.2675 6.9115,0.280833333 6.69316667,0.290833333 C6.3065,0.305833333 5.92816667,0.3725 5.5565,0.465833333 C4.0665,0.8475 2.82983333,1.63083333 1.85816667,2.82583333 C0.9265,3.9725 0.4265,5.2925 0.334833333,6.76416667 C0.294833333,7.3875 0.343166667,8.00916667 0.479833333,8.61916667 C0.868166667,10.3275 1.76316667,11.7058333 3.1765,12.7391667 C4.2715,13.5408333 5.50316667,13.9675 6.8565,14.0425 C7.6165,14.0825 8.37316667,14.0125 9.11483333,13.8191667 C10.4965,13.4575 11.6431667,12.7375 12.5048333,11.5891667 C13.7548333,9.92916667 14.0548333,7.80083333 13.6881667,5.77916667 L7.20483333,5.77916667 Z" id="Fill-3"></path>
                        <polygon id="Fill-5" points="22.0233333 5.86883333 19.6883333 5.86883333 19.6883333 3.53383333 19.6883333 3.4655 19.62 3.4655 17.8766667 3.4655 17.8066667 3.4655 17.8066667 3.53383333 17.8066667 5.86883333 15.47 5.86883333 15.4033333 5.86883333 15.4033333 5.93716667 15.4033333 7.6805 15.4033333 7.7505 15.47 7.7505 17.8066667 7.7505 17.8066667 10.0871667 17.8066667 10.1555 17.8766667 10.1555 19.62 10.1555 19.6883333 10.1555 19.6883333 10.0871667 19.6883333 7.7505 22.0233333 7.7505 22.0933333 7.7505 22.0933333 7.6805 22.0933333 5.93716667 22.0933333 5.86883333"></polygon>
                    </g>
                </g>
            </g>
        </g>
    </g>
</svg>