<svg width="14px" height="14px" viewBox="0 0 14 14" version="1.1" xmlns="http://www.w3.org/2000/svg" xmlns:xlink="http://www.w3.org/1999/xlink">
    <g id="web_check-out" stroke="none" stroke-width="1" fill="none" fill-rule="evenodd">
        <g id="web_checkout_4" transform="translate(-876.000000, -525.000000)" fill="#FFFFFF" fill-rule="nonzero">
            <g id="Group-7" transform="translate(525.000000, 235.000000)">
                <g id="Group-5" transform="translate(0.000000, 277.000000)">
                    <g id="Group-4" transform="translate(210.000000, 0.000000)">
                        <g id="Group-2" transform="translate(136.000000, 8.000000)">
                            <g id="Group" transform="translate(5.000000, 5.000000)">
                                <path d="M13.6920003,0.588000011 C13.6757991,0.573639132 13.6657683,0.553577485 13.6640003,0.53200001 C13.6360003,0.476000009 13.6360003,0.448000009 13.6080003,0.420000008 L13.6080003,0.364000007 L13.3840003,0.140000003 L13.3280003,0.140000003 L13.2160003,0.0840000016 L7.64400015,0.0840000016 C7.18008095,0.0840000016 6.80400013,0.460080819 6.80400013,0.924000018 C6.80400013,1.38791922 7.18008095,1.76400003 7.64400015,1.76400003 L10.8640002,1.76400003 L7.14000014,5.40400011 C6.9790781,5.55725919 6.88800013,5.76977444 6.88800013,5.99200012 C6.88800013,6.21422579 6.9790781,6.42674104 7.14000014,6.58000013 C7.29508973,6.73826811 7.50643396,6.82884421 7.72800015,6.83200013 C7.95163428,6.83915226 8.16694886,6.74687458 8.31600016,6.58000013 L12.0400002,2.85600006 L12.0400002,6.07600012 C12.0400002,6.53991932 12.4160811,6.91600013 12.8800003,6.91600013 C13.3439194,6.91600013 13.7200003,6.53991932 13.7200003,6.07600012 L13.7200003,0.840000016 C13.724084,0.782573723 13.714488,0.724997744 13.6920003,0.672000013 L13.6920003,0.588000011 Z" id="Shape"></path>
                                <path d="M10.5840002,11.7600002 L1.96000004,11.7600002 L1.96000004,3.16400006 L4.78800009,3.16400006 L4.78800009,1.48400003 L1.12000002,1.48400003 C0.894887471,1.47609395 0.676605735,1.56205226 0.517328984,1.72132901 C0.358052234,1.88060576 0.272093928,2.09888749 0.280000005,2.32400005 L0.280000005,12.6000002 C0.272093928,12.8251128 0.358052234,13.0433945 0.517328984,13.2026713 C0.676605735,13.361948 0.894887471,13.4479063 1.12000002,13.4400003 L11.4240002,13.4400003 C11.8879194,13.4400003 12.2640002,13.0639194 12.2640002,12.6000002 L12.2640002,8.93200017 L10.5840002,8.93200017 L10.5840002,11.7600002 Z" id="Shape"></path>
                            </g>
                        </g>
                    </g>
                </g>
            </g>
        </g>
    </g>
</svg>