<svg width="46px" height="33px" viewBox="0 0 46 33" version="1.1" xmlns="http://www.w3.org/2000/svg" xmlns:xlink="http://www.w3.org/1999/xlink">
    <g id="web_pdp" stroke="none" stroke-width="1" fill="none" fill-rule="evenodd">
        <g id="web_pdp_video" transform="translate(-1034.000000, -1017.000000)" fill="#000000">
            <g id="Group-3" transform="translate(0.000000, 860.000000)">
                <g id="Group-14" transform="translate(1034.000000, 157.000000)">
                    <g id="Share">
                        <path d="M43.72,14.4 L40.72,14.4 C39.8915729,14.4 39.22,15.0715729 39.22,15.9 C39.22,16.7284271 39.8915729,17.4 40.72,17.4 L43.72,17.4 C44.5484271,17.4 45.22,16.7284271 45.22,15.9 C45.22,15.0715729 44.5484271,14.4 43.72,14.4 Z" id="Shape"></path>
                        <path d="M43.55,23.15 L40.55,21.15 C39.8596441,20.6916037 38.9283963,20.8796441 38.47,21.57 C38.0116037,22.2603559 38.1996441,23.1916037 38.89,23.65 L41.89,25.65 C42.5803559,26.1083962 43.5116035,25.9203557 43.9699998,25.2299999 C44.4283961,24.539644 44.2403558,23.6083964 43.55,23.15 Z" id="Shape"></path>
                        <path d="M39.69,10.83 C39.973025,10.830342 40.2503722,10.7506048 40.49,10.6 L43.59,8.6 C44.0585285,8.31989032 44.3378996,7.80736449 44.3194345,7.26180105 C44.3009694,6.7162376 43.9875835,6.22377418 43.5011878,5.9759848 C43.014792,5.72819543 42.432182,5.76420294 41.98,6.07 L38.88,8.07 C38.31213,8.42685523 38.0501632,9.11731507 38.2384019,9.76104494 C38.4266406,10.4047748 39.0193334,10.8453161 39.69,10.84 L39.69,10.83 Z" id="Shape"></path>
                        <path d="M33.72,0.4 L29.72,0.4 C28.0631458,0.4 26.72,1.74314575 26.72,3.4 L26.72,3.49 L9.54,10.4 C9.1172517,9.2042713 7.98825492,8.40356437 6.72,8.4 L3.72,8.4 C2.06314575,8.4 0.72,9.74314575 0.72,11.4 L0.72,21.4 C0.72,23.0568542 2.06314575,24.4 3.72,24.4 L6.72,24.4 C7.98458015,24.3922239 9.10848922,23.5922886 9.53,22.4 L11.38,23.21 C11.2762304,23.4146243 11.2214551,23.6405722 11.22,23.87 C11.1629728,26.5462271 12.6545516,29.0153158 15.05,30.21 C15.932286,30.6483463 16.9048315,30.8743604 17.89,30.87 C19.6697624,30.8491413 21.3818501,30.1849081 22.71,29 C22.9022583,28.8299702 23.0469949,28.6128653 23.13,28.37 L26.78,29.98 C27.0651611,31.3769988 28.2941941,32.380291 29.72,32.38 L33.72,32.38 C35.3768542,32.38 36.72,31.0368542 36.72,29.38 L36.72,3.38 C36.7090062,1.73096156 35.3690751,0.399963353 33.72,0.4 Z M6.72,21.4 L3.72,21.4 L3.72,11.4 L6.72,11.4 L6.72,21.4 Z M26.72,26.9 L9.72,19.32 L9.72,13.51 L26.72,6.62 L26.72,26.9 Z M16.39,27.56 C15.1992428,26.9762314 14.393977,25.8193705 14.26,24.5 L20.26,27.13 C19.1389506,27.9531237 17.6643924,28.1169635 16.39,27.56 L16.39,27.56 Z M33.72,29.4 L29.72,29.4 L29.72,3.4 L33.72,3.4 L33.72,29.4 Z" id="Shape"></path>
                    </g>
                </g>
            </g>
        </g>
    </g>
</svg>