<svg width="16px" height="19px" viewBox="0 0 16 19" version="1.1" xmlns="http://www.w3.org/2000/svg" xmlns:xlink="http://www.w3.org/1999/xlink">
    <g id="Symbols" stroke="none" stroke-width="1" fill="none" fill-rule="evenodd">
        <g id="icons/music" transform="translate(-4.000000, -2.000000)" fill="#000000">
            <g id="Notes" transform="translate(4.000000, 2.000000)">
                <path d="M15.565322,0.576852482 C15.3779001,0.44045874 15.1369508,0.400899887 14.915757,0.470207485 L5.70550732,3.37870739 C5.41232107,3.48234509 5.21749072,3.76095248 5.22075734,4.07189987 L5.22075734,13.9123246 C4.3191152,13.4318729 3.24666422,13.3925497 2.31225743,13.8056796 C1.58368903,14.0971087 0.975374561,14.6268208 0.586547482,15.3084045 C0.198055809,15.9647204 0.141143296,16.7656154 0.432922688,17.4702721 C0.72470208,18.1749289 1.33113734,18.7011494 2.06988243,18.8907069 C2.35979115,18.9744461 2.66006208,19.0168757 2.96182241,19.0167419 C3.43952151,19.0152098 3.91224882,18.9196761 4.35305486,18.7355869 C5.73106787,18.1044161 6.62724938,16.7413165 6.66046479,15.225997 L6.66046479,4.60997235 L14.4164645,2.16198493 L14.4164645,10.8583997 C14.250924,10.7718611 14.0771713,10.7020352 13.8977821,10.6499572 C12.3426314,10.2462542 10.7083456,10.9229198 9.89374719,12.3078021 C9.51154039,12.9672436 9.45086317,13.7649707 9.72893219,14.4746345 C10.1888211,15.4586344 11.1987861,16.0661465 12.2835646,16.011292 C12.756443,16.0086115 13.2241915,15.9130854 13.6602546,15.730137 C14.411617,15.419897 15.8707145,14.2758871 15.8707145,13.3063871 L15.8707145,1.18763746 C15.8767973,0.945930602 15.7623372,0.717010319 15.565322,0.576852482 Z M3.78589738,17.387982 C3.37033099,17.5685755 2.9065657,17.6060859 2.46737742,17.4946269 C2.15205405,17.4302529 1.88922738,17.2136012 1.76586159,16.9163577 C1.6424958,16.6191141 1.67467246,16.2800264 1.85174494,16.011292 C2.08315224,15.6211895 2.43792263,15.3192935 2.86002491,15.1532845 C3.12415478,15.0426716 3.40744226,14.9850259 3.69379488,14.983622 C4.18479788,14.9390489 4.65533574,15.1905105 4.89112735,15.623492 C5.13834984,16.224582 4.63420985,17.038962 3.78589738,17.387982 Z M14.1013771,13.5099821 C13.8696842,13.8998437 13.5150073,14.2016602 13.0930971,14.3679895 C12.2447846,14.721857 11.3140646,14.5037195 11.0619947,13.8832396 C10.9561844,13.580275 10.9917634,13.2458325 11.1589446,12.9719096 C11.3906375,12.5820479 11.7453144,12.2802315 12.1672246,12.1139021 C12.4315019,12.0037688 12.7146937,11.9461425 13.0009946,11.9442396 C13.1649638,11.9439754 13.328152,11.9668218 13.4857446,12.0121046 C13.7977071,12.0879046 14.0592319,12.2996152 14.1983271,12.5889571 L14.1983271,12.5889571 C14.3119596,12.8990839 14.2761872,13.2442882 14.1013771,13.5245246 L14.1013771,13.5099821 Z" id="Shape"></path>
            </g>
        </g>
    </g>
</svg>