<svg width="20px" height="20px" viewBox="0 0 20 20" version="1.1" xmlns="http://www.w3.org/2000/svg" xmlns:xlink="http://www.w3.org/1999/xlink">
    <g id="Symbols" stroke="none" stroke-width="1" fill="none" fill-rule="evenodd">
        <g id="icons/productivity" transform="translate(-2.000000, -2.000000)" fill="#000000">
            <g id="Idea" transform="translate(2.000000, 2.000000)">
                <path d="M9.45531915,2.5106383 C9.80784133,2.5106383 10.093617,2.22486261 10.093617,1.87234043 L10.093617,1.0212766 C10.093617,0.668754415 9.80784133,0.382978723 9.45531915,0.382978723 C9.10279697,0.382978723 8.81702128,0.668754415 8.81702128,1.0212766 L8.81702128,1.87234043 C8.81702128,2.22486261 9.10279697,2.5106383 9.45531915,2.5106383 Z" id="Shape"></path>
                <path d="M18.6042553,8.25531915 L17.7531915,8.25531915 C17.4006693,8.25531915 17.1148936,8.54109484 17.1148936,8.89361702 C17.1148936,9.2461392 17.4006693,9.53191489 17.7531915,9.53191489 L18.6042553,9.53191489 C18.9567775,9.53191489 19.2425532,9.2461392 19.2425532,8.89361702 C19.2425532,8.54109484 18.9567775,8.25531915 18.6042553,8.25531915 Z" id="Shape"></path>
                <path d="M2.2212766,8.89361702 C2.2212766,8.54109484 1.9355009,8.25531915 1.58297872,8.25531915 L0.731914894,8.25531915 C0.379392713,8.25531915 0.0936170213,8.54109484 0.0936170213,8.89361702 C0.0936170213,9.2461392 0.379392713,9.53191489 0.731914894,9.53191489 L1.58297872,9.53191489 C1.9355009,9.53191489 2.2212766,9.2461392 2.2212766,8.89361702 Z" id="Shape"></path>
                <path d="M15.3829787,4.66382979 C15.5522088,4.66368081 15.7144533,4.59633403 15.8340426,4.47659574 L16.4382979,3.87659574 C16.6726458,3.62509808 16.665731,3.23318322 16.4226569,2.99010911 C16.1795827,2.747035 15.7876679,2.74012012 15.5361702,2.97446809 L14.9319149,3.57446809 C14.7495997,3.75701006 14.6950994,4.03135496 14.7937983,4.26972214 C14.8924972,4.50808932 15.1249858,4.66360286 15.3829787,4.66382979 Z" id="Shape"></path>
                <path d="M3.9787234,3.57446809 L3.37446809,2.97446809 C3.12297042,2.74012012 2.73105556,2.747035 2.48798145,2.99010911 C2.24490734,3.23318322 2.23799246,3.62509808 2.47234043,3.87659574 L3.07659574,4.47659574 C3.32809341,4.71094371 3.72000827,4.70402883 3.96308238,4.46095472 C4.20615649,4.21788061 4.21307137,3.82596575 3.9787234,3.57446809 L3.9787234,3.57446809 Z" id="Shape"></path>
                <path d="M16.6893617,13.787234 C16.437864,13.5528861 16.0459492,13.559801 15.8028751,13.8028751 C15.559801,14.0459492 15.5528861,14.437864 15.787234,14.6893617 L16.3914894,15.2893617 C16.642987,15.5237097 17.0349019,15.5167948 17.277976,15.2737207 C17.5210501,15.0306466 17.527965,14.6387317 17.293617,14.387234 L16.6893617,13.787234 Z" id="Shape"></path>
                <path d="M2.2212766,13.787234 L1.61702128,14.387234 C1.38267331,14.6387317 1.38958819,15.0306466 1.6326623,15.2737207 C1.87573641,15.5167948 2.26765127,15.5237097 2.51914894,15.2893617 L3.12340426,14.6893617 C3.35775222,14.437864 3.35083734,14.0459492 3.10776323,13.8028751 C2.86468913,13.559801 2.47277426,13.5528861 2.2212766,13.787234 Z" id="Shape"></path>
                <path d="M15.6255319,9.95744681 C15.6296216,7.03468692 13.5128042,4.54060873 10.6282516,4.06954757 C7.74369904,3.59848641 4.94342315,5.28957985 4.01749562,8.06179923 C3.09156809,10.8340186 4.31348062,13.8685321 6.90212766,15.2255319 C6.76940361,15.4310046 6.69850627,15.6702831 6.69787234,15.9148936 L6.69787234,17.1914894 C6.69787234,18.6015781 7.84097511,19.7446809 9.25106383,19.7446809 L10.1021277,19.7446809 C11.5122164,19.7446809 12.6553191,18.6015781 12.6553191,17.1914894 L12.6553191,15.9148936 C12.6546852,15.6702831 12.5837879,15.4310046 12.4510638,15.2255319 C14.403975,14.1937436 15.6257613,12.166168 15.6255319,9.95744681 Z M11.3702128,15.9148936 L11.3702128,16.3404255 L9.24255319,16.3404255 C8.89003101,16.3404255 8.60425532,16.6262012 8.60425532,16.9787234 C8.60425532,17.3312456 8.89003101,17.6170213 9.24255319,17.6170213 L11.293617,17.6170213 C11.1137241,18.125842 10.6333,18.4665684 10.093617,18.4680851 L9.24255319,18.4680851 C8.53750883,18.4680851 7.96595745,17.8965337 7.96595745,17.1914894 L7.96595745,15.9148936 L11.3702128,15.9148936 Z M9.66808511,14.6382979 L9.66808511,14.6382979 C7.08292245,14.6382979 4.98723404,12.5426095 4.98723404,9.95744681 C4.98723404,7.37228415 7.08292245,5.27659574 9.66808511,5.27659574 C12.2532478,5.27659574 14.3489362,7.37228415 14.3489362,9.95744681 C14.3489367,11.1996233 13.8551929,12.3908614 12.9764425,13.2688137 C12.0976921,14.146766 10.9060058,14.6394271 9.66382979,14.6382979 L9.66808511,14.6382979 Z" id="Shape"></path>
                <path d="M9.66808511,6.34042553 C9.31556293,6.34042553 9.02978723,6.62620122 9.02978723,6.9787234 C9.02978723,7.33124558 9.31556293,7.61702128 9.66808511,7.61702128 C10.9596951,7.61936328 12.0061686,8.66583681 12.0085106,9.95744681 C12.0085106,10.309969 12.2942863,10.5957447 12.6468085,10.5957447 C12.9993307,10.5957447 13.2851064,10.309969 13.2851064,9.95744681 C13.2827615,7.9607932 11.6647387,6.3427704 9.66808511,6.34042553 L9.66808511,6.34042553 Z" id="Shape"></path>
            </g>
        </g>
    </g>
</svg>