<svg width="88px" height="80px" viewBox="0 0 88 80" version="1.1" xmlns="http://www.w3.org/2000/svg" xmlns:xlink="http://www.w3.org/1999/xlink">
    <defs>
        <filter x="-20.5%" y="-22.9%" width="141.0%" height="145.7%" filterUnits="objectBoundingBox" id="filter-1">
            <feOffset dx="0" dy="3" in="SourceAlpha" result="shadowOffsetOuter1"></feOffset>
            <feGaussianBlur stdDeviation="2.5" in="shadowOffsetOuter1" result="shadowBlurOuter1"></feGaussianBlur>
            <feColorMatrix values="0 0 0 0 0.858551233   0 0 0 0 0.858551233   0 0 0 0 0.858551233  0 0 0 0.5 0" type="matrix" in="shadowBlurOuter1" result="shadowMatrixOuter1"></feColorMatrix>
            <feMerge>
                <feMergeNode in="shadowMatrixOuter1"></feMergeNode>
                <feMergeNode in="SourceGraphic"></feMergeNode>
            </feMerge>
        </filter>
        <polygon id="path-2" points="0.117712593 19.3383435 11.7172949 19.3383435 11.7172949 0.126696684 0.117712593 0.126696684 0.117712593 19.3383435"></polygon>
        <polygon id="path-4" points="21.9340465 20.0489688 21.9340465 0.111348146 0.198581489 0.111348146 0.198581489 20.0489688"></polygon>
    </defs>
    <g id="Symbols" stroke="none" stroke-width="1" fill="none" fill-rule="evenodd">
        <g id="Header-2/Black" transform="translate(5.000000, 2.000000)">
            <g id="Group-2">
                <g id="Group-10" filter="url(#filter-1)">
                    <path d="M53.5975522,66.9753086 C53.5975522,66.9753086 53.8272786,66.9740291 54.2721048,66.9718966 C54.4945178,66.970617 54.7715662,66.9753086 55.0993781,66.9505711 C55.4263296,66.9266866 55.8096372,66.9266866 56.2372554,66.8708139 C57.9442864,66.6997837 60.4880552,66.2899083 63.446106,64.9451246 C64.9173878,64.27124 66.4785812,63.3610693 68.0316009,62.1647108 C69.5699938,60.9555571 71.1023639,59.4572301 72.445016,57.6228138 C73.111825,56.7049659 73.7506711,55.7163175 74.3051981,54.6423672 C74.8584344,53.5679904 75.3484315,52.420254 75.7424941,51.2042761 C76.1421493,49.9900043 76.4346849,48.7045054 76.6166592,47.3720905 C76.6738757,47.0377073 76.7001179,46.7071626 76.7319526,46.3727793 C76.7483002,46.2064407 76.7646478,46.0383961 76.7809953,45.870778 C76.7887389,45.6946296 76.7964825,45.5180548 76.8046563,45.34148 C76.8123999,45.1640521 76.8197133,44.9861978 76.8274569,44.8083434 L76.8339099,44.6744195 L76.8369212,44.557556 L76.8412232,44.2888552 C76.847246,43.9305874 76.853699,43.5697606 76.8597218,43.2076542 C76.9444711,37.4105405 77.034813,31.1297653 77.1311776,24.4864572 C77.1522574,22.8448231 77.019756,21.1878347 76.6889327,19.5372439 C76.3417618,17.8926242 75.8108958,16.2633589 75.0855797,14.7019085 C74.3529502,13.1451498 73.4529731,11.6425577 72.3641386,10.2632268 C71.2765946,8.88474886 70.0277259,7.61204526 68.6394726,6.4886199 C67.2568118,5.35837039 65.7179888,4.40256316 64.0926956,3.61096199 C63.2822,3.20876377 62.4351375,2.87779259 61.581622,2.56644084 C60.7164911,2.2832387 59.8431864,2.01837646 58.9479415,1.83241842 L58.2764003,1.68953782 L57.5992666,1.57949844 C57.1479874,1.49632913 56.6906855,1.45666377 56.2346742,1.40462965 C55.7778025,1.34918344 55.329965,1.34363882 54.8778254,1.30951808 C54.6476688,1.29928186 54.4050364,1.30312044 54.1692871,1.30013488 L53.8126518,1.29757582 L53.6345493,1.2962963 L53.4753756,1.29842884 C51.5738944,1.33382911 49.6629489,1.36965589 47.7442598,1.40505615 C40.0695033,1.55604043 32.2725702,1.70958376 24.4752069,1.86312709 C22.6326631,1.91004311 20.8038856,2.17618488 19.0383475,2.65003665 C17.2723792,3.12474145 15.5812655,3.83487935 13.9964111,4.71007633 C12.4128473,5.59167095 10.9553318,6.67457793 9.63634063,7.88501118 C8.3238024,9.10525414 7.17473993,10.481173 6.195176,11.9500708 C4.25841851,14.9057799 3.05945291,18.2683789 2.71701422,21.6697901 C2.65721651,22.1022705 2.65506552,22.4950855 2.62323077,22.9036814 C2.60516239,23.0921985 2.61032478,23.3446919 2.60645299,23.5720214 L2.6,24.2672315 C2.61462678,25.1765492 2.62968376,26.0828813 2.64431053,26.9858014 C2.67141309,28.8257623 2.69808545,30.6525014 2.72432761,32.4643127 C2.76863815,36.0875088 2.81208828,39.6505671 2.85467802,43.1381332 C2.86027061,43.5740257 2.865433,44.0086386 2.87059539,44.442825 C2.87059539,44.6684484 2.88264098,44.8509943 2.88952416,45.0493211 L2.91189453,45.6340653 C2.9351253,46.0226153 2.97728483,46.4086061 3.00653839,46.794597 C3.05945291,47.1767493 3.11193723,47.5584751 3.16528195,47.9389213 C3.41909957,49.4543087 3.83682314,50.9206475 4.3947917,52.3085086 C5.50943823,55.0872163 7.18764591,57.5439096 9.1893635,59.5293102 C11.1837677,61.529212 13.493508,63.0573947 15.8768124,64.1424342 C17.0710459,64.6828214 18.2915214,65.0986679 19.509846,65.4078872 C20.1164271,65.5746523 20.7281706,65.6932218 21.3334611,65.8058203 C21.6380422,65.8518833 21.9409025,65.8983728 22.2416119,65.9435828 C22.5294153,65.9734384 22.8150676,66.0037206 23.0989992,66.0327232 L23.3128083,66.0561812 L23.5606031,66.0672704 C23.7262299,66.0758006 23.8909962,66.0830513 24.0553324,66.091155 L24.3009762,66.1022442 L24.4244434,66.1082153 L24.4851015,66.1120539 C24.4799391,66.1129069 24.5836172,66.1150395 24.4885431,66.11376 C24.6520189,66.1188781 24.8146342,66.1235697 24.9768194,66.1286878 C25.6259902,66.1478807 26.2656966,66.1666471 26.8967991,66.184987 C28.159004,66.2229463 29.384642,66.2604791 30.5728526,66.2963059 C35.3239742,66.4524083 39.4659336,66.5893178 42.8769843,66.7006367 C46.2884652,66.80897 48.9681769,66.8699609 50.7956638,66.9104792 C52.6231506,66.9527037 53.5975522,66.9753086 53.5975522,66.9753086" id="Path" fill="#FFE600"></path>
                    <g id="Digi-logo" transform="translate(15.600000, 16.419753)">
                        <path d="M8.94611606,27.7272762 C8.94611606,29.6081846 7.7581193,31.1127077 5.71153234,31.1127077 C3.89200209,31.1127077 2.62831976,30.2355612 2.62831976,27.9532295 L2.62831976,24.5169076 C2.62831976,22.2598176 3.84133993,21.3564116 5.61000292,21.3564116 C7.68243373,21.3564116 8.94611606,22.6858719 8.94611606,24.6921741 L8.94611606,27.7272762 Z M10.2598452,14.2848883 C9.77988795,14.2848883 8.94611606,14.2848883 8.94611606,14.4849893 L8.94611606,20.679366 C8.6932155,20.2781463 7.48019533,19.1249704 5.20573124,19.1249704 C2.37541921,19.1249704 4.10219877e-05,20.7550909 4.10219877e-05,24.1914128 L4.10219877e-05,28.3794873 C4.10219877e-05,31.8158092 2.40044262,33.4210953 5.02913158,33.4210953 C7.15160921,33.4210953 8.46554347,32.3424228 9.07266889,31.4394239 L9.07266889,32.9687816 C9.07266889,33.1699003 9.80491136,33.1699003 10.2854839,33.1699003 C10.7656463,33.1699003 11.5741897,33.1699003 11.5741897,32.9687816 L11.5741897,14.4849893 C11.5741897,14.2848883 10.7400076,14.2848883 10.2598452,14.2848883 L10.2598452,14.2848883 Z" id="Fill-1" fill="#211E1E"></path>
                        <path d="M16.2481529,19.4010405 C15.7679905,19.4010405 14.9338084,19.4010405 14.9338084,19.6011414 L14.9338084,32.9688223 C14.9338084,33.1699411 15.7679905,33.1699411 16.2481529,33.1699411 C16.7283153,33.1699411 17.5624974,33.1699411 17.5624974,32.9688223 L17.5624974,19.6011414 C17.5624974,19.4010405 16.7283153,19.4010405 16.2481529,19.4010405" id="Fill-3" fill="#211E1E"></path>
                        <g id="Group-7" transform="translate(19.895664, 19.023434)">
                            <mask id="mask-3" fill="white">
                                <use xlink:href="#path-2"></use>
                            </mask>
                            <g id="Clip-6"></g>
                            <path d="M9.06378763,8.45297316 C9.06378763,10.4843135 7.82512871,11.8644605 5.77854176,11.8644605 C4.00967366,11.8644605 2.77101474,10.9610545 2.77101474,8.70376094 L2.77101474,5.5941553 C2.77101474,3.31202721 4.03469707,2.43386285 5.77854176,2.43386285 C7.85076746,2.43386285 9.06378763,3.93818241 9.06378763,5.82010858 L9.06378763,8.45297316 Z M10.428384,0.352649961 C9.92258294,0.352649961 9.16470172,0.352649961 9.16470172,0.552750926 L9.16470172,1.98277054 C8.58362526,1.07956812 7.26928078,0.126696684 5.17203167,0.126696684 C2.51872952,0.126696684 0.117712593,1.73157564 0.117712593,5.1678975 L0.117712593,9.08034974 C0.117712593,12.5166716 2.41740521,14.1716267 5.17203167,14.1716267 C6.91567125,14.1716267 8.2045821,13.519212 9.06378763,12.4161122 L9.06378763,13.9452663 C9.06378763,16.0026625 7.82512871,17.2065252 5.75331324,17.2065252 C4.1860682,17.2065252 2.94822973,16.6290212 1.88658069,16.0026625 C1.63368014,15.8263782 0.471322125,17.7333424 0.749246091,17.9332398 C1.58363332,18.4598535 3.4532104,19.338425 5.65198893,19.338425 C8.60885379,19.338425 11.7172949,17.832884 11.7172949,13.1937172 L11.7172949,0.552750926 C11.7172949,0.352649961 10.9083413,0.352649961 10.428384,0.352649961 L10.428384,0.352649961 Z" id="Fill-5" fill="#211E1E" mask="url(#mask-3)"></path>
                        </g>
                        <path d="M35.705661,19.4010405 C35.2254986,19.4010405 34.3921369,19.4010405 34.3921369,19.6011414 L34.3921369,32.9688223 C34.3921369,33.1699411 35.2254986,33.1699411 35.705661,33.1699411 C36.1858233,33.1699411 37.0195952,33.1699411 37.0195952,32.9688223 L37.0195952,19.6011414 C37.0195952,19.4010405 36.1858233,19.4010405 35.705661,19.4010405" id="Fill-8" fill="#211E1E"></path>
                        <g id="Group-12" transform="translate(29.125611, 0.092213)">
                            <mask id="mask-5" fill="white">
                                <use xlink:href="#path-4"></use>
                            </mask>
                            <g id="Clip-11"></g>
                            <path d="M11.1814042,6.20921641 C11.2849847,6.13165947 11.5594218,5.92972645 11.5994182,5.89980291 C11.6650534,5.45176403 11.8275005,4.69716151 12.2038772,3.92403489 C12.6089693,3.09207899 13.2587576,2.17299877 14.1655486,1.56312849 C14.9258912,1.05157841 16.1801384,0.489748639 17.147642,0.282115898 C17.9412124,0.112142036 18.6851461,0.0801828791 19.3205767,0.137383664 C20.630819,0.255652901 21.3558826,0.626949097 21.7176965,1.10755782 C21.8540946,1.28893113 21.9285495,1.51060962 21.9336773,1.65432404 C21.9418817,1.89269457 21.8352245,2.20577217 21.4914603,2.511318 C21.1556953,2.80933205 20.4402718,3.18205318 19.4608719,3.50734447 C18.446193,3.84444234 17.061701,4.20148923 15.6788498,4.51741669 C14.5203888,4.78225022 13.5820109,5.08311413 13.0378542,5.28647208 C12.8760225,5.34672629 12.7697755,5.39558105 12.6272241,5.45970292 C12.5402575,5.66652142 12.33966,6.22061585 12.2889978,6.51211594 C13.3030613,6.91577841 13.9606438,7.44748108 14.4695216,7.86152519 C15.1295653,8.39872402 15.8954458,9.02996826 16.841618,10.1737804 C17.7041053,11.2168296 19.108493,13.2172285 19.6179861,15.1587982 C20.1760902,17.286016 19.8253523,19.3079925 18.6186905,19.8700258 C17.4337704,20.4218811 15.8523728,19.62392 14.7443689,18.4794972 C13.688668,17.3890181 12.9519131,16.1086162 12.2586415,14.1359016 C11.6611563,12.4357559 11.4164601,9.97266162 11.4178959,8.68574575 C11.4185112,8.25765589 11.4189215,8.00116839 11.4345098,7.61297659 C10.9490146,7.30335953 10.3812703,7.32025513 9.74030173,7.68788722 C8.56973932,8.35964021 7.35877025,9.80390913 6.7136995,10.5593259 C6.43167333,10.8897062 6.05037396,11.3725541 5.64651249,11.876776 C5.11322665,12.5430328 4.52702245,13.2381954 3.99004464,13.6259801 C3.18416769,14.2079624 1.88869333,14.453254 0.981081853,13.8083712 C0.474870527,13.448678 0.206996949,12.7706146 0.198792551,12.0817624 C0.192844363,11.5917899 0.312628567,11.1514863 0.557119612,10.7221751 C0.86006699,10.1898618 1.35991991,9.6194824 2.15451581,8.96604995 C2.97516067,8.2914471 4.28417229,7.53399472 5.59626056,7.00819534 C7.59731311,6.20616299 9.75281344,5.95130397 11.1814042,6.20921641" id="Fill-10" fill="#2BABE1" mask="url(#mask-5)"></path>
                        </g>
                    </g>
                    <path d="M54.012055,66.4545424 C54.012055,66.4545424 54.2363081,66.4532869 54.6705361,66.4511945 C54.8876501,66.449939 55.1580977,66.4545424 55.4780993,66.4302699 C55.797261,66.4068344 56.1714362,66.4068344 56.5888662,66.3520121 C58.2552265,66.1841971 60.7383888,65.782027 63.6259628,64.4625242 C65.0621906,63.8013081 66.586188,62.9082479 68.1022063,61.73438 C69.6039463,60.5479574 71.099807,59.0777978 72.4104699,57.277867 C73.0613919,56.3772739 73.6850172,55.4072113 74.2263323,54.3534504 C74.7663876,53.299271 75.2447102,52.1731112 75.6293841,50.9799927 C76.0195174,49.7885482 76.3050831,48.5272157 76.4827218,47.2198492 C76.5385752,46.891752 76.5641921,46.5674213 76.5952684,46.2393242 C76.6112264,46.0761127 76.6271845,45.9112271 76.6431426,45.7467601 C76.6507017,45.5739232 76.6582608,45.4006678 76.6662399,45.2274125 C76.6737989,45.0533201 76.6809381,44.8788093 76.6884972,44.7042985 L76.6947964,44.5728922 L76.6977361,44.4582256 L76.7019356,44.1945762 C76.7078149,43.8430435 76.7141141,43.489 76.7199934,43.1337009 C76.8027235,37.4455683 76.8909129,31.2828667 76.9849817,24.7644475 C77.0055592,23.1536748 76.8762147,21.5278364 76.5532734,19.9082754 C76.214374,18.2945733 75.6961561,16.6959368 74.988121,15.1638405 C74.2729467,13.6363476 73.394412,12.162003 72.3315194,10.8086024 C71.2698866,9.45603881 70.0507727,8.20726102 68.6955952,7.10495515 C67.3458769,5.99595343 65.843717,5.05811462 64.2571471,4.28139492 C63.4659619,3.8867577 62.639081,3.56200852 61.8059009,3.25650993 C60.9613821,2.97863177 60.1088843,2.71874872 59.234969,2.53628655 L58.5794276,2.39609199 L57.9184268,2.28812126 C57.4778996,2.20651547 57.0314931,2.16759579 56.5863465,2.11653986 C56.1403599,2.062136 55.7031923,2.05669562 55.2618252,2.02321632 C55.0371521,2.01317253 54.8003005,2.01693895 54.5701681,2.01400951 L54.2220298,2.01149857 L54.0481707,2.01024309 L53.8927893,2.01233555 C52.0366118,2.04707032 50.1711953,2.08222358 48.2982198,2.11695835 C40.8063177,2.26510424 33.19515,2.41576108 25.5835622,2.56641792 C23.7849178,2.61245195 21.9997118,2.87359047 20.2762383,3.33853421 C18.5523449,3.80431493 16.9015228,4.50110281 15.3544282,5.35984678 C13.8085935,6.22486813 12.385804,7.28741732 11.0982383,8.4750954 C9.81697189,9.67239876 8.69528632,11.0224514 7.73906093,12.4637352 C5.84844752,15.3638793 4.6780478,18.663264 4.34376786,22.0007315 C4.28539486,22.4250816 4.28329511,22.810512 4.25221883,23.2114266 C4.23458095,23.3963997 4.23962034,23.6441465 4.2358408,23.8672023 L4.22954155,24.549343 C4.24381984,25.4415663 4.25851808,26.3308601 4.27279637,27.216806 C4.2992532,29.0221771 4.32529008,30.814575 4.35090701,32.5923257 C4.39416182,36.1474086 4.43657674,39.6434842 4.47815175,43.0654869 C4.4836111,43.4931849 4.4886505,43.9196274 4.49368989,44.3456515 C4.49368989,44.5670333 4.50544848,44.7461476 4.51216768,44.940746 L4.53400506,45.5144974 C4.55668234,45.8957429 4.59783741,46.2744775 4.62639399,46.653212 C4.6780478,47.0281802 4.72928166,47.4027298 4.78135542,47.776024 C5.02912572,49.2629233 5.43689685,50.7016961 5.98157157,52.0634665 C7.06966116,54.7899368 8.70788481,57.2004462 10.6619106,59.1485228 C12.6087973,61.1108281 14.863507,62.6102821 17.1900282,63.6749238 C18.3558085,64.2051521 19.5472057,64.6131811 20.7365032,64.9165872 C21.3286322,65.0802173 21.9258006,65.1965578 22.5166698,65.3070395 C22.8139942,65.3522366 23.1096387,65.3978521 23.4031835,65.4422122 C23.6841299,65.4715066 23.9629765,65.5012194 24.2401432,65.5296768 L24.4488582,65.5526938 L24.6907492,65.5635746 C24.8524299,65.5719444 25.0132706,65.5790588 25.1736913,65.5870101 L25.4134826,65.5978909 L25.5340082,65.6037498 L25.5932211,65.6075162 C25.5881817,65.6083532 25.6893895,65.6104456 25.5965807,65.6091902 C25.7561615,65.6142121 25.9149025,65.6188155 26.0732235,65.6238374 C26.7069276,65.6426695 27.3313927,65.6610831 27.9474589,65.6790782 C29.1795912,65.7163239 30.3760278,65.7531511 31.5359288,65.7883044 C36.173853,65.9414722 40.2171284,66.0758079 43.5469093,66.1850341 C46.8771101,66.2913308 49.4929766,66.3511751 51.2769228,66.3909318 C53.060869,66.4323624 54.012055,66.4545424 54.012055,66.4545424 M54.012055,69.1546477 C54.012055,69.1546477 53.060869,69.1768278 51.2769228,69.2182584 C49.4929766,69.2580151 46.8771101,69.3178593 43.5469093,69.4241561 C40.2171284,69.5338008 36.173853,69.6672995 31.5359288,69.8204673 C30.3760278,69.856039 29.1795912,69.8924478 27.9474589,69.9305305 C27.3313927,69.9489441 26.7069276,69.9673577 26.0732235,69.9857713 C25.9149025,69.9903747 25.7561615,69.9949781 25.5965807,70 C25.418522,69.9995815 25.2396234,69.9995815 25.0603049,69.999163 C24.8998842,69.998326 24.7390434,69.9974891 24.5773628,69.9970706 L24.3346319,69.9962336 L24.0570452,69.9824234 C23.6858097,69.9602433 23.3124744,69.9384818 22.9366195,69.9163018 C22.5771426,69.8782191 22.2151459,69.8388809 21.8510496,69.7999612 C21.1257965,69.6991048 20.3913045,69.5861122 19.6580724,69.4195527 C18.1916082,69.0906186 16.7209444,68.617305 15.2746378,68.001286 C12.377825,66.7788731 9.6116165,64.9094728 7.24855972,62.4897566 C4.89138223,60.066274 2.93567662,57.089546 1.65650993,53.7357574 C1.01650664,52.060537 0.547002912,50.2945041 0.272355829,48.4774153 C0.211883077,48.0225153 0.15686967,47.5646859 0.105215861,47.1060195 C0.0753994345,46.6456792 0.032984518,46.1840834 0.0157665816,45.7203951 L0.0052678399,45.0240257 C0.00316809156,44.7942741 -0.00313115346,44.5486197 0.00190824256,44.3456515 C0.00694763857,43.9196274 0.0119870346,43.4931849 0.0174463803,43.0654869 C0.0590213974,39.6434842 0.101436314,36.1474086 0.14469113,32.5923257 C0.170308059,30.814575 0.196764889,29.0221771 0.222381818,27.216806 C0.237500006,26.2969623 0.252618194,25.3746077 0.268156332,24.4484866 L0.29671291,23.7667644 C0.308051551,23.5345018 0.30889145,23.3265117 0.337028078,23.0574218 C0.386162189,22.5502105 0.416818515,22.0212376 0.497028901,21.5403912 C0.768316387,19.5772489 1.2596575,17.6308462 1.99750907,15.7735822 C2.74123993,13.9184106 3.70040497,12.1431709 4.8632456,10.5068702 C6.03532512,8.87768395 7.39008275,7.37320802 8.9132402,6.05579768 C10.4422769,4.74633866 12.1178761,3.59967273 13.9186203,2.68861735 C15.7206243,1.78216538 17.625516,1.07198579 19.5929802,0.625455658 C21.5596045,0.179762513 23.5766228,-0.0286461127 25.5835622,0.00315921972 C33.19515,0.153816057 40.8063177,0.304054404 48.2982198,0.452618786 C50.1711953,0.487353557 52.0366118,0.522506819 53.8927893,0.556823098 L54.0859661,0.561844993 L54.2594054,0.569377835 L54.6067037,0.58486201 C54.8401958,0.596998255 55.0669686,0.601601659 55.3042401,0.618759798 C55.7842426,0.667723271 56.273484,0.692414252 56.7417279,0.764394742 C57.2120715,0.833027301 57.6828351,0.890779089 58.1464595,0.991216981 L58.8423161,1.12806361 L59.5301936,1.29838953 C60.4469438,1.52102686 61.338077,1.82317752 62.2157718,2.14457877 C63.0838077,2.49360045 63.9396652,2.86312819 64.7556274,3.30254397 C66.3921712,4.16965777 67.9270873,5.19956465 69.2936035,6.39728651 C70.6626394,7.59040496 71.8901523,8.91702212 72.9475855,10.3449141 C74.0003994,11.7769911 74.8848134,13.3065765 75.5869692,14.8943322 C77.0093387,18.0614737 77.7047754,21.4625518 77.7114946,24.7644475 C77.8051434,31.2828667 77.8941727,37.4455683 77.9760629,43.1337009 C77.9823621,43.489 77.9886614,43.8430435 77.9941207,44.1945762 L77.9987402,44.4582256 L78,44.6063715 L77.9987402,44.7373593 C77.9970604,44.9127071 77.9958005,45.0872179 77.9941207,45.2608918 C77.9928609,45.4354026 77.9911811,45.6090765 77.9890813,45.7827503 C77.9781626,45.9627015 77.9672439,46.1430713 77.9571651,46.3221855 C77.9361677,46.680414 77.9181098,47.0394794 77.8723353,47.3847347 C77.7312322,48.7799844 77.4729632,50.134222 77.1004678,51.420664 C76.7304922,52.7083614 76.2681276,53.9349592 75.7331117,55.089995 C75.1959961,56.2450307 74.5677514,57.3159497 73.902971,58.3161437 C72.5658513,60.3148578 71.0074181,61.9758494 69.4191684,63.3351089 C67.8166405,64.6826506 66.1830363,65.7297156 64.6271228,66.5210825 C61.5005975,68.1025608 58.7482474,68.66585 56.8929097,68.9261515 C56.4276055,69.0039909 56.0114354,69.02366 55.6540582,69.0629982 C55.296681,69.1031733 54.9938973,69.1115431 54.7503265,69.1224239 C54.2640248,69.1433485 54.012055,69.1546477 54.012055,69.1546477" id="Fill-1-Copy-4" fill="#FFFFFF"></path>
                </g>
            </g>
        </g>
    </g>
</svg>